<?xml version="1.0" standalone="no"?>
<!DOCTYPE svg PUBLIC "-//W3C//DTD SVG 1.1//EN" "http://www.w3.org/Graphics/SVG/1.1/DTD/svg11.dtd" >
<svg xmlns="http://www.w3.org/2000/svg">
<metadata>
This is a custom SVG webfont generated by Font Squirrel.
Copyright   : Copyright  1990 2002 Adobe Systems Incorporated  All Rights Reserved  1981 2002 Heidelberger Druckmaschinen AG All rights reserved
Designer    : Linotype Staff
Foundry URL : httpwwwadobecomtype
</metadata>
<defs>
<font id="HelveticaNeueLTStd23UltraLtEx" horiz-adv-x="1327" >
<font-face units-per-em="2048" ascent="1462" descent="-586" />
<missing-glyph horiz-adv-x="663" />
<glyph unicode=" "  horiz-adv-x="663" />
<glyph unicode="&#x09;" horiz-adv-x="663" />
<glyph unicode="&#xa0;" horiz-adv-x="663" />
<glyph unicode="!" horiz-adv-x="454" d="M207 0v197h41v-197h-41zM207 373v1089h41v-1089h-41z" />
<glyph unicode="&#x22;" horiz-adv-x="606" d="M158 1020v442h41v-442h-41zM408 1020v442h41v-442h-41z" />
<glyph unicode="#" d="M156 485v41h260l53 389h-254v41h260l68 486h41l-68 -486h361l67 486h41l-67 -486h253v-41h-260l-53 -389h254v-41h-260l-68 -485h-41l68 485h-360l-68 -485h-41l68 485h-254zM457 526h360l53 389h-360z" />
<glyph unicode="$" d="M49 475h41q4 -250 153.5 -355.5t424.5 -109.5v713l-189 39q-178 37 -279.5 111.5t-101.5 232.5q0 178 136.5 273.5t408.5 95.5h25v163h41v-165q137 -6 236 -39t152.5 -73t86.5 -104.5t42 -108.5t15 -110h-41q-8 84 -28.5 142.5t-70.5 118t-148.5 93t-243.5 40.5v-676 l235 -51q334 -72 334 -332q0 -72 -22.5 -134.5t-79 -128t-176 -104.5t-291.5 -39v-192h-41v194q-162 2 -280 39t-180.5 87t-100 125t-47 131t-11.5 124zM139 1102q0 -111 73 -182.5t251 -110.5l205 -45v670h-19q-510 0 -510 -332zM709 8q127 0 223 23.5t153.5 58.5t92 85 t47 96t12.5 100q0 125 -82 195.5t-252 107.5l-194 41v-707z" />
<glyph unicode="%" horiz-adv-x="1820" d="M115 1087.5q0 200.5 102 294t245.5 93.5t246 -93.5t102.5 -294t-102.5 -294t-246 -93.5t-245.5 93.5t-102 294zM156 1087.5q0 -165.5 83 -256t224 -90.5t224 90.5t83 256t-83 256t-224 90.5t-224 -90.5t-83 -256zM403 -45l975 1532h41l-975 -1532h-41zM1010 354.5 q0 200.5 102 293.5t245.5 93t246 -93t102.5 -293.5t-102.5 -294t-246 -93.5t-245.5 93.5t-102 294zM1051 354q0 -166 83 -256t224 -90t224 90t83 256t-83 256t-224 90t-224 -90t-83 -256z" />
<glyph unicode="&#x26;" horiz-adv-x="1441" d="M113 381q0 133 64.5 222t213.5 153l174 73q-121 117 -173 198t-52 163q0 123 79 197.5t245 74.5q164 0 246.5 -75.5t82.5 -192.5t-75.5 -202t-278.5 -179l561 -539q86 117 100 287h41q-12 -176 -112 -315l256 -246h-60l-221 213q-215 -246 -557 -246q-229 0 -381.5 112 t-152.5 302zM154 381q0 -158 132 -265.5t365 -107.5q315 0 525 234l-580 557l-170 -72q-141 -59 -206.5 -140t-65.5 -206zM381 1192q0 -70 43 -138.5t182 -209.5q188 82 267 161.5t79 190.5q0 102 -76.5 163.5t-213.5 61.5q-143 0 -212 -64.5t-69 -164.5z" />
<glyph unicode="'" horiz-adv-x="344" d="M152 1020v442h41v-442h-41z" />
<glyph unicode="(" horiz-adv-x="532" d="M137 536.5q0 247.5 77 490.5t210 435h53q-299 -426 -299 -925.5t299 -925.5h-53q-133 193 -210 435.5t-77 490z" />
<glyph unicode=")" horiz-adv-x="532" d="M55 -389q299 426 299 925.5t-299 925.5h54q133 -193 209.5 -435.5t76.5 -490t-76.5 -490.5t-209.5 -435h-54z" />
<glyph unicode="*" horiz-adv-x="757" d="M57 1214l13 39l288 -94v303h41v-303l289 94l12 -39l-288 -94l178 -246l-33 -24l-178 246l-178 -246l-33 24l178 246z" />
<glyph unicode="+" horiz-adv-x="1228" d="M96 498v41h498v497h41v-497h498v-41h-498v-498h-41v498h-498z" />
<glyph unicode="," horiz-adv-x="344" d="M94 -193q57 37 58 181v209h41v-195q0 -94 -19.5 -153.5t-79.5 -94.5v53z" />
<glyph unicode="-" horiz-adv-x="757" d="M160 524v41h438v-41h-438z" />
<glyph unicode="." horiz-adv-x="344" d="M152 0v197h41v-197h-41z" />
<glyph unicode="/" horiz-adv-x="833" d="M-31 -33l854 1528h41l-854 -1528h-41z" />
<glyph unicode="0" d="M51 721q0 158 33 290t103.5 238.5t191.5 166t284.5 59.5t284.5 -59.5t191.5 -166t103.5 -238.5t33 -290t-33 -290t-103.5 -238.5t-191.5 -166t-284.5 -59.5t-284.5 59.5t-191.5 166t-103.5 238.5t-33 290zM92 720.5q0 -321.5 139.5 -517t432 -195.5t432 195.5t139.5 517 t-139.5 517.5t-432 196t-432 -196t-139.5 -517.5z" />
<glyph unicode="1" horiz-adv-x="872" d="M70 1128v41q281 70 454 273h54v-1442h-41v1389q-88 -98 -215 -166t-252 -95z" />
<glyph unicode="2" d="M127 0q2 154 83 247t292 216l325 188q289 166 289 406q0 188 -122 282.5t-341 94.5q-233 0 -343.5 -117t-110.5 -354h-41q0 47 1 78.5t11 90t28.5 99.5t56.5 90t91 80t136 52.5t188 21.5q117 0 206 -30t141 -73t85 -100.5t44 -106.5t11 -96q0 -270 -303 -451l-358 -206 q-172 -98 -243 -177t-85 -194h1032v-41h-1073z" />
<glyph unicode="3" d="M106 442q0 6 1.5 21.5t1.5 23.5h41q-2 -14 -3 -45q0 -223 138.5 -328.5t380.5 -105.5q143 0 248.5 36t159.5 94.5t80 118.5t26 126q0 367 -488 367h-90v41h86q231 0 345 82.5t114 222.5q0 170 -120 254t-333 84q-264 0 -378.5 -106.5t-127.5 -338.5h-41q12 240 135.5 363 t411.5 123q248 0 371 -101.5t123 -277.5q0 -121 -81 -213t-259 -111v-4q373 -41 373 -385q0 -68 -25 -133.5t-83 -133t-174 -108.5t-277 -41q-274 0 -415 127t-141 348z" />
<glyph unicode="4" d="M90 381v55l799 1006h53v-1020h295v-41h-295v-381h-41v381h-811zM131 422h770v967h-4z" />
<glyph unicode="5" d="M113 461h41q0 -115 38.5 -202t93 -133t129 -73.5t132 -36t117.5 -8.5q244 0 377 124t133 325q0 219 -128 348t-382 129q-154 0 -279 -67.5t-176 -159.5h-53l170 735h821v-41h-785l-147 -613l4 -4q63 82 186 136.5t259 54.5q100 0 189 -23.5t174 -78t136 -161t51 -255.5 q0 -213 -143 -351.5t-407 -138.5q-80 0 -154 14.5t-147.5 49.5t-128 89t-88 142t-33.5 199z" />
<glyph unicode="6" d="M104 709q0 393 140.5 579.5t449.5 186.5q193 0 333 -97.5t163 -287.5h-41q-25 174 -153 259t-304 85q-293 0 -420 -178.5t-127 -546.5q0 -31 1 -68t1 -53h5q43 186 189 280.5t339 94.5q248 0 395.5 -138.5t147.5 -359.5t-147.5 -359.5t-395.5 -138.5q-141 0 -245.5 39 t-167 103.5t-99.5 163t-50.5 201t-13.5 235.5zM178 465q0 -219 132 -338t370 -119q223 0 362.5 124t139.5 333t-139.5 333t-362.5 124q-231 0 -366.5 -128t-135.5 -329z" />
<glyph unicode="7" horiz-adv-x="1214" d="M92 1401v41h1020v-53q-676 -594 -713 -1389h-41q41 809 713 1401h-979z" />
<glyph unicode="8" d="M86 381q0 373 412 414v4q-121 8 -201 63.5t-107.5 118.5t-27.5 133q0 178 129 269.5t372.5 91.5t372.5 -91.5t129 -269.5q0 -70 -27.5 -133t-107.5 -118.5t-201 -63.5v-4q412 -41 412 -414q0 -184 -136 -299t-441.5 -115t-441.5 115t-136 299zM127 381q0 -373 536.5 -373 t536.5 373q0 395 -536.5 395t-536.5 -395zM203 1120q0 -147 117.5 -225t343 -78t343 78t117.5 225q0 150 -116.5 232t-344 82t-344 -82t-116.5 -232z" />
<glyph unicode="9" d="M104 977q0 221 147.5 359.5t395.5 138.5q141 0 245.5 -39t167 -103.5t99.5 -163t50.5 -201t13.5 -235.5q0 -393 -140.5 -579.5t-449.5 -186.5q-193 0 -333 97.5t-163 287.5h41q25 -174 153 -259t304 -85q293 0 420 178.5t127 546.5q0 31 -1 68t-1 53h-4 q-43 -186 -189.5 -280.5t-339.5 -94.5q-248 0 -395.5 138.5t-147.5 359.5zM145 977q0 -209 139.5 -333t362.5 -124q231 0 366.5 128t135.5 329q0 219 -132 338t-370 119q-223 0 -362.5 -124t-139.5 -333z" />
<glyph unicode=":" horiz-adv-x="344" d="M152 0v197h41v-197h-41zM152 807v197h41v-197h-41z" />
<glyph unicode=";" horiz-adv-x="344" d="M94 -193q57 37 58 181v209h41v-195q0 -94 -19.5 -153.5t-79.5 -94.5v53zM152 807v197h41v-197h-41z" />
<glyph unicode="&#x3c;" horiz-adv-x="1228" d="M96 487v62l1037 508v-53l-996 -486l996 -485v-53z" />
<glyph unicode="=" horiz-adv-x="1228" d="M96 299v41h1037v-41h-1037zM96 696v41h1037v-41h-1037z" />
<glyph unicode="&#x3e;" horiz-adv-x="1228" d="M96 -20v53l996 485l-996 486v53l1037 -508v-62z" />
<glyph unicode="?" horiz-adv-x="1251" d="M92 1010q2 82 10.5 139t40 128t85 114t152.5 73.5t236 30.5q510 0 510 -362q0 -117 -43 -188t-147 -140l-176 -117q-82 -55 -103.5 -94t-21.5 -133v-86h-41v57q0 133 24.5 183.5t139.5 121.5l143 92q109 70 146.5 136.5t37.5 164.5q0 324 -469 324q-123 0 -213 -25.5 t-140 -63.5t-79.5 -100.5t-39 -118.5t-11.5 -136h-41zM594 0v197h41v-197h-41z" />
<glyph unicode="@" horiz-adv-x="1638" d="M94 731.5q0 317.5 223.5 540.5t540.5 223q285 0 485.5 -180t200.5 -455q0 -225 -145.5 -407.5t-321.5 -182.5q-51 0 -86 32t-35 83q0 43 21 98h-4q-113 -213 -303 -213q-119 0 -195 86t-76 205q0 152 55.5 293t168 237.5t256.5 96.5q88 0 154.5 -48t82.5 -130h4l41 137 h41l-188 -662q-16 -59 -17 -102q0 -31 22.5 -51.5t59.5 -20.5q160 0 292 173t132 370q0 188 -98 328.5t-241.5 206t-305.5 65.5q-299 0 -511 -212t-212 -511t212 -511t511 -212q197 0 352.5 92.5t253.5 243.5h47q-94 -174 -273 -275.5t-380 -101.5q-317 0 -540.5 223.5 t-223.5 541zM440 561q0 -111 69 -180.5t179 -69.5q88 0 167 77t127 182.5t76.5 203.5t28.5 154q0 111 -61 165t-147 54q-188 0 -313.5 -179.5t-125.5 -406.5z" />
<glyph unicode="A" d="M-35 0l672 1462h53l672 -1462h-53l-219 483h-852l-220 -483h-53zM256 524h815l-407 897z" />
<glyph unicode="B" horiz-adv-x="1402" d="M113 0v1462h794q178 0 285.5 -94t107.5 -268q0 -131 -98 -233q-96 -99 -220 -99h-5v-4q158 -6 263.5 -96t105.5 -271q0 -70 -25 -135t-77 -126.5t-152.5 -98.5t-237.5 -37h-741zM154 41h700q129 0 222 35t140.5 91t68 113.5t20.5 116.5q0 344 -451 344h-700v-700z M154 782h716q176 0 283 95.5t107 222.5q0 156 -96.5 238.5t-264.5 82.5h-745v-639z" />
<glyph unicode="C" horiz-adv-x="1630" d="M57 731q0 352 216 558t542 206q270 0 455.5 -114.5t242.5 -344.5h-40q-45 184 -210 301t-448 117q-301 0 -509 -192.5t-208 -530.5t208 -530.5t509 -192.5q285 0 479.5 162t212.5 385h41q-20 -186 -134 -323.5t-269.5 -201t-329.5 -63.5q-326 0 -542 206t-216 558z" />
<glyph unicode="D" horiz-adv-x="1517" d="M113 0v1462h712q295 0 453 -197.5t158 -533.5t-158 -533.5t-453 -197.5h-712zM154 41h671q152 0 265.5 57.5t178 156.5t95.5 218t31 258t-31 258t-95.5 218.5t-178 156.5t-265.5 57h-671v-1380z" />
<glyph unicode="E" horiz-adv-x="1290" d="M113 0v1462h1138v-41h-1097v-639h1050v-41h-1050v-700h1110v-41h-1151z" />
<glyph unicode="F" horiz-adv-x="1138" d="M113 0v1462h1026v-41h-985v-639h925v-41h-925v-741h-41z" />
<glyph unicode="G" horiz-adv-x="1669" d="M57 731q0 352 216 558t542 206q612 0 705 -491h-41q-55 215 -205 332.5t-459 117.5q-301 0 -509 -192.5t-208 -530.5t209 -530.5t518 -192.5q139 0 261 38t219.5 114t154 200.5t56.5 284.5h-648v41h688v-686h-40v391h-5q-51 -145 -159.5 -242.5t-242.5 -139.5t-294 -42 q-326 0 -542 206t-216 558z" />
<glyph unicode="H" horiz-adv-x="1478" d="M113 0v1462h41v-680h1171v680h41v-1462h-41v741h-1171v-741h-41z" />
<glyph unicode="I" horiz-adv-x="266" d="M113 0v1462h41v-1462h-41z" />
<glyph unicode="J" horiz-adv-x="1062" d="M45 455h41q0 -446 406 -447q121 0 207.5 35t129.5 92.5t61.5 113.5t18.5 116v1097h41v-1097q0 -72 -22.5 -137.5t-71.5 -126t-142 -97.5t-218 -37q-451 1 -451 488z" />
<glyph unicode="K" horiz-adv-x="1402" d="M113 0v1462h41v-891l1161 891h71l-798 -610l862 -852h-64l-833 823l-399 -305v-518h-41z" />
<glyph unicode="L" horiz-adv-x="1099" d="M113 0v1462h41v-1421h985v-41h-1026z" />
<glyph unicode="M" horiz-adv-x="1896" d="M113 0v1462h67l768 -1421h4l764 1421h68v-1462h-41v1409h-4l-764 -1409h-53l-764 1409h-4v-1409h-41z" />
<glyph unicode="N" horiz-adv-x="1478" d="M113 0v1462h53l1155 -1409h4v1409h41v-1462h-53l-1155 1409h-4v-1409h-41z" />
<glyph unicode="O" horiz-adv-x="1630" d="M57 731q0 352 216 558t542 206t542 -206t216 -558t-216 -558t-542 -206t-542 206t-216 558zM98 731q0 -338 208 -530.5t509 -192.5t509 192.5t208 530.5t-208 530.5t-509 192.5t-509 -192.5t-208 -530.5z" />
<glyph unicode="P" d="M113 0v1462h782q406 0 405 -399q0 -170 -106.5 -283.5t-355.5 -113.5h-684v-666h-41zM154 707h694q203 0 307.5 93t104.5 263q0 358 -353 358h-753v-714z" />
<glyph unicode="Q" horiz-adv-x="1630" d="M57 731q0 352 216 558t542 206t542 -206t216 -558q0 -389 -266 -602l272 -180l-25 -37l-286 188q-193 -133 -453 -133q-326 0 -542 206t-216 558zM98 731q0 -338 208 -530.5t509 -192.5q231 0 414 119l-275 180l25 37l289 -190q264 199 264 577q0 338 -208 530.5 t-509 192.5t-509 -192.5t-208 -530.5z" />
<glyph unicode="R" horiz-adv-x="1402" d="M113 0v1462h805q215 0 309 -99t94 -300q0 -125 -87 -231.5t-261 -116.5l-2 -4q324 -2 323 -308q0 -336 33 -403h-41q-33 66 -33 365q0 92 -15 147t-59 98t-128 60.5t-222 17.5h-675v-688h-41zM154 729h696q209 0 319.5 97.5t110.5 236.5q0 203 -93 280.5t-274 77.5h-759 v-692z" />
<glyph unicode="S" horiz-adv-x="1366" d="M68 481h41q2 -135 47 -229t131 -146.5t192.5 -75t245.5 -22.5q156 0 265.5 33t164.5 90t78.5 116.5t23.5 127.5q0 121 -74.5 194.5t-240.5 108.5l-463 98q-186 39 -273 118t-87 226q0 375 540 375q174 0 296 -36t184.5 -102.5t89 -138t33.5 -165.5h-41 q-14 197 -141.5 299t-409.5 102q-510 0 -510 -338q0 -113 68.5 -184.5t244.5 -110.5l492 -106q170 -37 251.5 -119t81.5 -217q0 -72 -21.5 -135.5t-77.5 -130t-180 -106.5t-302 -40q-166 0 -289 35t-189.5 85t-106.5 125t-51 135t-13 134z" />
<glyph unicode="T" horiz-adv-x="1175" d="M-43 1421v41h1262v-41h-611v-1421h-41v1421h-610z" />
<glyph unicode="U" horiz-adv-x="1478" d="M102 535v927h41v-932q0 -522 596 -522t596 522v932h41v-927q0 -567 -637 -567t-637 567z" />
<glyph unicode="V" horiz-adv-x="1290" d="M-33 1462h53l625 -1409l625 1409h53l-651 -1462h-54z" />
<glyph unicode="W" horiz-adv-x="2011" d="M-39 1462h41l471 -1409h4l498 1409h61l498 -1409h4l471 1409h41l-487 -1462h-54l-501 1421h-4l-502 -1421h-53z" />
<glyph unicode="X" horiz-adv-x="1253" d="M-37 0l633 748l-610 714h53l588 -688l587 688h54l-611 -714l633 -748h-53l-610 721l-611 -721h-53z" />
<glyph unicode="Y" horiz-adv-x="1290" d="M-66 1462h60l651 -800l651 800h60l-690 -846v-616h-41v616z" />
<glyph unicode="Z" horiz-adv-x="1175" d="M-39 0v59l1178 1362h-1108v41h1161v-49l-1190 -1372h1212v-41h-1253z" />
<glyph unicode="[" horiz-adv-x="532" d="M143 -389v1851h279v-41h-238v-1769h238v-41h-279z" />
<glyph unicode="\" horiz-adv-x="833" d="M-31 1495h41l854 -1528h-41z" />
<glyph unicode="]" horiz-adv-x="532" d="M111 -348h237v1769h-237v41h278v-1851h-278v41z" />
<glyph unicode="^" horiz-adv-x="1228" d="M125 514l469 928h41l469 -928h-41l-449 887l-448 -887h-41z" />
<glyph unicode="_" horiz-adv-x="1024" d="M0 -154h1024v-102h-1024v102z" />
<glyph unicode="`" horiz-adv-x="266" d="M-135 1491h65l336 -285h-57z" />
<glyph unicode="a" horiz-adv-x="1155" d="M49 285q0 135 88 211.5t254 83.5l346 12q166 6 211 33.5t45 124.5v57q0 125 -107.5 179t-326.5 54q-223 0 -316 -69.5t-106 -239.5h-41q10 199 127 274.5t336 75.5q248 0 361.5 -66.5t113.5 -205.5v-680q0 -49 14.5 -68.5t55.5 -19.5q47 0 96 14v-41q-37 -14 -96 -14 q-111 0 -111 104v125h-4q-127 -262 -524 -262q-193 0 -304.5 82t-111.5 236zM90 283q0 -135 104.5 -205t272.5 -70q256 0 391 117t135 295v194h-4q-31 -53 -274 -63l-320 -12q-305 -12 -305 -256z" />
<glyph unicode="b" horiz-adv-x="1253" d="M113 0v1462h41v-698h4q61 166 194 241.5t305 75.5q268 0 407.5 -158.5t139.5 -398t-139 -398.5t-408 -159q-182 0 -312 81t-187 235h-4v-283h-41zM154 524q0 -219 126 -367.5t377.5 -148.5t378.5 148.5t127 367.5t-127 367.5t-378.5 148.5t-377.5 -148.5t-126 -367.5z " />
<glyph unicode="c" d="M98 524.5q0 243.5 158 400t420 156.5q229 0 371.5 -95t173.5 -265h-41q-74 319 -504 319q-254 0 -395.5 -148.5t-141.5 -367.5t141.5 -367.5t395.5 -148.5q203 0 335 89t177 259h41q-45 -182 -183.5 -285.5t-369.5 -103.5q-262 0 -420 157t-158 400.5z" />
<glyph unicode="d" horiz-adv-x="1253" d="M49 524.5q0 239.5 139.5 398t407.5 158.5q172 0 305 -75.5t195 -241.5h4v698h41v-1462h-41v283h-4q-57 -154 -187.5 -235t-312.5 -81q-268 0 -407.5 159t-139.5 398.5zM90 524q0 -219 127 -367.5t379 -148.5t378 148.5t126 367.5t-126 367.5t-378 148.5t-379 -148.5 t-127 -367.5z" />
<glyph unicode="e" horiz-adv-x="1214" d="M49 524.5q0 243.5 158 400t420 156.5q238 0 398.5 -150.5t160.5 -406.5h-1096q0 -219 141.5 -367.5t395.5 -148.5q403 0 501 357h41q-14 -66 -44.5 -126.5t-89 -126t-164 -105.5t-244.5 -40q-262 0 -420 157t-158 400.5zM90 565h1055q-12 199 -150.5 337t-367.5 138 q-242 0 -382.5 -135t-154.5 -340z" />
<glyph unicode="f" horiz-adv-x="569" d="M2 1008v41h250v206q0 127 70.5 173.5t201.5 46.5q29 0 123 -5v-40q-39 4 -117 4q-139 0 -188 -45.5t-49 -155.5v-184h305v-41h-305v-1008h-41v1008h-250z" />
<glyph unicode="g" horiz-adv-x="1290" d="M59 551q0 250 150.5 390t408.5 140q203 0 333 -78.5t182 -220.5h4v267h41v-1016q0 -246 -140.5 -365t-398.5 -119q-98 0 -176 12.5t-161 46.5t-134 108.5t-64 185.5h41q8 -55 23.5 -96.5t50.5 -84.5t85 -69.5t134 -44t195 -17.5q504 0 504 445v280h-4 q-131 -295 -515 -295q-258 0 -408.5 140.5t-150.5 390.5zM100 550.5q0 -235.5 138.5 -362.5t379.5 -127q246 0 382.5 129t136.5 361q0 240 -137.5 364.5t-381.5 124.5q-242 0 -380 -127t-138 -362.5z" />
<glyph unicode="h" horiz-adv-x="1214" d="M113 0v1462h41v-649h4q119 268 473 268q143 0 241.5 -35.5t145.5 -101t65.5 -133.5t18.5 -152v-659h-41v659q0 76 -15.5 135.5t-57.5 120t-132 93t-225 32.5q-125 0 -217 -34.5t-140.5 -84t-77 -117t-35.5 -116.5t-7 -100v-588h-41z" />
<glyph unicode="i" horiz-adv-x="266" d="M113 0v1049h41v-1049h-41zM113 1239v223h41v-223h-41z" />
<glyph unicode="j" horiz-adv-x="266" d="M-221 -367q61 -6 137 -6q115 0 156 51.5t41 169.5v1201h41v-1235q0 -117 -59.5 -172.5t-190.5 -55.5q-23 0 -65 3t-60 3v41zM113 1239v223h41v-223h-41z" />
<glyph unicode="k" horiz-adv-x="1099" d="M113 0v1462h41v-1024l835 611h72l-549 -402l590 -647h-53l-570 625l-325 -240v-385h-41z" />
<glyph unicode="l" horiz-adv-x="266" d="M113 0v1462h41v-1462h-41z" />
<glyph unicode="m" horiz-adv-x="1933" d="M113 0v1049h41v-201h4q104 233 426 233q139 0 242.5 -60t138.5 -185h4q53 125 154.5 185t226.5 60q143 0 241.5 -35.5t145.5 -101t65.5 -133.5t18.5 -152v-659h-41v659q0 76 -15.5 135.5t-57.5 120t-132 93t-225 32.5q-154 0 -258.5 -95t-104.5 -269v-676h-41v676 q0 188 -99 276t-263 88q-203 0 -316.5 -102t-113.5 -291v-647h-41z" />
<glyph unicode="n" horiz-adv-x="1214" d="M113 0v1049h41v-236h4q119 268 473 268q143 0 241.5 -35.5t145.5 -101t65.5 -133.5t18.5 -152v-659h-41v659q0 76 -15.5 135.5t-57.5 120t-132 93t-225 32.5q-125 0 -217 -34.5t-140.5 -84t-77 -117t-35.5 -116.5t-7 -100v-588h-41z" />
<glyph unicode="o" horiz-adv-x="1253" d="M49 524.5q0 243.5 158 400t420 156.5t419.5 -156.5t157.5 -400t-157.5 -400.5t-419.5 -157t-420 157t-158 400.5zM90 524q0 -219 141.5 -367.5t395.5 -148.5t395 148.5t141 367.5t-141 367.5t-395 148.5t-395.5 -148.5t-141.5 -367.5z" />
<glyph unicode="p" horiz-adv-x="1253" d="M113 -414v1463h41v-283h4q57 154 187 234.5t312 80.5q268 0 407.5 -158.5t139.5 -398t-139 -398.5t-408 -159q-172 0 -305 76t-194 242h-4v-699h-41zM154 524q0 -219 126 -367.5t377.5 -148.5t378.5 148.5t127 367.5t-127 367.5t-378.5 148.5t-377.5 -148.5t-126 -367.5z " />
<glyph unicode="q" horiz-adv-x="1253" d="M49 524.5q0 239.5 139.5 398t407.5 158.5q182 0 312 -80.5t188 -234.5h4v283h41v-1463h-41v699h-4q-61 -166 -194.5 -242t-305.5 -76q-268 0 -407.5 159t-139.5 398.5zM90 524q0 -219 127 -367.5t379 -148.5t378 148.5t126 367.5t-126 367.5t-378 148.5t-379 -148.5 t-127 -367.5z" />
<glyph unicode="r" horiz-adv-x="645" d="M113 0v1049h41v-283h4q45 152 163.5 233.5t268.5 81.5q27 0 88 -6v-41q-45 6 -90 6q-188 0 -311 -137t-123 -385v-518h-41z" />
<glyph unicode="s" horiz-adv-x="1024" d="M23 328h40q12 -111 47 -174.5t137.5 -104.5t282.5 -41q430 0 431 258q0 117 -68 166t-236 70l-317 39q-281 33 -281 260q0 281 457 280q221 0 326.5 -74.5t113.5 -265.5h-41q-8 172 -104 235.5t-307 63.5q-403 0 -404 -239q0 -98 59.5 -150.5t188.5 -68.5l318 -39 q188 -23 261.5 -85.5t73.5 -193.5q0 -297 -471 -297q-125 0 -216 20.5t-143 50.5t-85 81t-45 96t-18 113z" />
<glyph unicode="t" horiz-adv-x="606" d="M2 1008v41h250v360h41v-360h305v-41h-305v-813q0 -96 39 -131t147 -35q25 0 148 10v-41q-88 -10 -148 -10q-133 0 -180 48t-47 161v811h-250z" />
<glyph unicode="u" horiz-adv-x="1214" d="M113 389v660h41v-660q0 -76 15 -135t57 -119.5t132.5 -93.5t225.5 -33q123 0 215 36t140 85t78 115.5t37 114t7 92.5v598h41v-1049h-41v236l-4 -5q-117 -264 -473 -264q-143 0 -241.5 36t-145.5 101.5t-65.5 133t-18.5 151.5z" />
<glyph unicode="v" horiz-adv-x="1101" d="M0 1049h47l504 -1008l504 1008h47l-531 -1049h-41z" />
<glyph unicode="w" horiz-adv-x="1744" d="M-27 1049h54l403 -1008l410 1008h65l410 -1008l403 1008h54l-426 -1049h-62l-412 1008l-411 -1008h-62z" />
<glyph unicode="x" horiz-adv-x="1064" d="M-18 0l518 547l-475 502h61l446 -471l447 471h61l-479 -502l522 -547h-59l-492 514l-491 -514h-59z" />
<glyph unicode="y" horiz-adv-x="1024" d="M-27 1049h54l510 -998l460 998h54l-557 -1188q-63 -133 -121 -174t-174 -41h-82v41h94q88 0 137 32.5t94 130.5l70 152z" />
<glyph unicode="z" horiz-adv-x="985" d="M6 0v55l885 953h-830v41h883v-50l-897 -958h932v-41h-973z" />
<glyph unicode="{" horiz-adv-x="532" d="M61 516v41q143 4 144 328v342q0 119 34.5 177t133.5 58h110v-41h-110q-80 0 -103.5 -47t-23.5 -184v-320q0 -272 -144 -333q143 -61 144 -334v-320q0 -137 23.5 -184t103.5 -47h110v-41h-110q-98 0 -133 58.5t-35 176.5v342q-1 324 -144 328z" />
<glyph unicode="|" horiz-adv-x="454" d="M207 -33v1528h41v-1528h-41z" />
<glyph unicode="}" horiz-adv-x="532" d="M49 -348h111q80 0 103.5 47t23.5 184v320q0 272 143 334q-143 61 -143 333v320q0 137 -23.5 184t-103.5 47h-111v41h111q98 0 133 -58t35 -177v-342q0 -324 143 -328v-41q-143 -4 -143 -328v-342q0 -119 -35 -177t-133 -58h-111v41z" />
<glyph unicode="~" horiz-adv-x="1228" d="M162 449q55 88 113.5 124.5t136.5 36.5q106 0 233 -69.5t203 -69.5q39 0 94 39t94 106l31 -30q-45 -74 -108.5 -115t-110.5 -41q-88 0 -213 70q-127 70 -223 69q-70 0 -117 -32.5t-105 -116.5z" />
<glyph unicode="&#xa1;" horiz-adv-x="454" d="M207 -381v1090h41v-1090h-41zM207 885v196h41v-196h-41z" />
<glyph unicode="&#xa2;" d="M98 524.5q0 237.5 148.5 392t400.5 162.5v211h41v-209q223 -2 362.5 -97t170.5 -263h-41q-74 313 -492 319v-1032q197 4 326 93t174 255h41q-45 -178 -180.5 -282.5t-360.5 -106.5v-209h-41v211q-252 8 -400.5 163t-148.5 392.5zM139 524q0 -211 134.5 -358.5 t373.5 -155.5v1028q-240 -8 -374 -155.5t-134 -358.5z" />
<glyph unicode="&#xa3;" d="M96 0q274 270 275 459q0 104 -49 213h-187v41h166q-14 31 -50 93t-54.5 99t-35 95.5t-16.5 113.5q0 170 134.5 265.5t359.5 95.5q274 0 413.5 -110t139.5 -370v-28h-41q0 92 -12.5 159.5t-46 128t-90 98.5t-147.5 59.5t-216 21.5q-190 0 -321.5 -79t-131.5 -245 q0 -66 21.5 -127t70 -147t64.5 -123h492v-41h-472q49 -117 50 -215q0 -94 -59.5 -195.5t-207.5 -247.5h5q111 63 153.5 77.5t116.5 14.5t237 -49q168 -49 232 -49q152 0 313 185l29 -33q-98 -104 -175 -148.5t-167 -44.5q-70 0 -238 49q-164 49 -231 50q-76 0 -137.5 -20.5 t-157.5 -78.5z" />
<glyph unicode="&#xa4;" d="M154 721q0 199 135 344l-111 111l31 30l110 -110q145 135 345 135q203 0 344 -135l110 110l31 -30l-111 -111q135 -145 135.5 -344t-135.5 -344l111 -111l-31 -30l-110 110q-141 -135 -344 -135q-199 0 -345 135l-110 -110l-31 30l111 111q-135 141 -135 344zM195 720.5 q0 -192.5 138 -330.5t330.5 -138t331 138t138.5 330.5t-138.5 331t-331 138.5t-330.5 -138.5t-138 -331z" />
<glyph unicode="&#xa5;" d="M-6 1442h59l600 -766h23l598 766h59l-602 -766h412v-41h-445l-14 -19v-194h459v-41h-459v-381h-41v381h-459v41h459v194l-14 19h-445v41h412z" />
<glyph unicode="&#xa6;" horiz-adv-x="454" d="M207 -33v553h41v-553h-41zM207 942v553h41v-553h-41z" />
<glyph unicode="&#xa7;" d="M106 715q0 125 80 199.5t209 97.5v4q-152 66 -151 211q0 268 389 268q139 0 229 -27.5t132 -84t56.5 -113t16.5 -142.5h-41q-2 113 -30.5 178.5t-116.5 106.5t-248 41q-346 0 -346 -227q0 -76 48 -122t214 -128l471 -232q123 -61 163 -119.5t40 -144.5q0 -109 -80 -188.5 t-211 -85.5v-6q150 -80 149 -224q0 -285 -399 -284q-252 0 -353.5 91t-101.5 292h41q0 -82 14.5 -137.5t54.5 -105.5t125 -74.5t216 -24.5q362 0 362 239q0 133 -172 217l-569 275q-191 90 -191 250zM147 729q0 -94 58.5 -149.5t259.5 -151.5l401 -192q160 6 237 76.5 t77 176.5q0 84 -53.5 135.5t-202.5 125.5l-488 233q-102 -8 -195.5 -75.5t-93.5 -178.5z" />
<glyph unicode="&#xa8;" horiz-adv-x="266" d="M-98 1219v223h41v-223h-41zM324 1219v223h41v-223h-41z" />
<glyph unicode="&#xa9;" horiz-adv-x="1638" d="M55 731.5q0 317.5 224.5 540.5t540 223t539.5 -223t224 -540.5t-224 -541t-539.5 -223.5t-540 223.5t-224.5 541zM96 731q0 -299 212 -511t511 -212t511 212t212 511t-212 511t-511 212t-511 -212t-212 -511zM379 733q0 221 122 350t335 129q158 0 263 -82.5t126 -232.5 h-41q-23 135 -115 204.5t-231 69.5q-199 0 -308.5 -117.5t-109.5 -318.5q0 -199 112.5 -322.5t307.5 -123.5q141 0 231 75.5t113 210.5h41q-20 -150 -123 -238.5t-262 -88.5q-209 0 -335 135t-126 350z" />
<glyph unicode="&#xaa;" horiz-adv-x="761" d="M10 1006q0 80 59.5 124t159.5 48l197 8q129 4 164 22.5t35 69.5v27q0 145 -283 145q-141 0 -202.5 -43t-69.5 -145h-29q8 123 81 170t208 47q178 0 250.5 -41t72.5 -135v-392q0 -41 7.5 -50t37.5 -9q27 0 64 8v-29q-33 -8 -66 -8q-35 0 -53 13.5t-18 54.5v67h-4 q-78 -160 -326 -159q-131 0 -208 52.5t-77 154.5zM39 993q0 -78 68.5 -122t175.5 -44q180 0 272 91q70 61 70 153v123h-4q-16 -33 -195 -37l-190 -8q-197 -9 -197 -156z" />
<glyph unicode="&#xab;" horiz-adv-x="796" d="M147 526v37l242 283v-51l-213 -250l213 -250v-51zM375 526v37l241 283v-51l-213 -250l213 -250v-51z" />
<glyph unicode="&#xac;" horiz-adv-x="1228" d="M96 696v41h1037v-516h-41v475h-996z" />
<glyph unicode="&#xad;" horiz-adv-x="757" d="M160 524v41h438v-41h-438z" />
<glyph unicode="&#xae;" horiz-adv-x="1638" d="M55 731.5q0 317.5 224.5 540.5t540 223t539.5 -223t224 -540.5t-224 -541t-539.5 -223.5t-540 223.5t-224.5 541zM96 731q0 -299 212 -511t511 -212t511 212t212 511t-212 511t-511 212t-511 -212t-212 -511zM541 279v905h358q139 0 208 -65.5t69 -184.5 q0 -203 -230 -238l271 -417h-54l-270 417h-311v-417h-41zM582 737h305q248 0 248 199q0 115 -65.5 161t-160.5 46h-327v-406z" />
<glyph unicode="&#xaf;" horiz-adv-x="266" d="M-252 1309v41h770v-41h-770z" />
<glyph unicode="&#xb0;" horiz-adv-x="819" d="M117 1182q0 121 86 207t206.5 86t206.5 -86t86 -207t-86 -207t-206.5 -86t-206.5 86t-86 207zM158 1181.5q0 -104.5 73.5 -178t178 -73.5t178.5 73.5t74 178t-74 178.5t-178.5 74t-178 -74t-73.5 -178.5z" />
<glyph unicode="&#xb1;" horiz-adv-x="1228" d="M96 0v41h1037v-41h-1037zM96 586v41h498v409h41v-409h498v-41h-498v-410h-41v410h-498z" />
<glyph unicode="&#xb2;" horiz-adv-x="862" d="M51 586q2 96 54.5 152.5t189.5 131.5l252 136q63 35 105 93t42 124q0 227 -301 227q-295 0 -295 -279h-28q0 43 3 70t21.5 78t50 81t100 54.5t163.5 24.5q92 0 158.5 -26t98 -66.5t45 -78.5t13.5 -75q0 -162 -197 -270l-243 -129q-102 -57 -147.5 -105.5t-55.5 -114.5 h670v-28h-699z" />
<glyph unicode="&#xb3;" horiz-adv-x="862" d="M33 852v27h28v-19q0 -270 336 -270q178 0 257 70.5t79 156.5q0 219 -315 219h-60v29h56q150 0 224.5 49t74.5 131q0 102 -78 153.5t-217 51.5q-170 0 -244 -64.5t-84 -201.5h-29q6 145 87 220t270 75q162 0 242.5 -61.5t80.5 -164.5q0 -78 -52 -134t-169 -66v-4 q242 -25 242 -234q0 -98 -85 -176t-282 -78q-180 0 -271 77t-91 214z" />
<glyph unicode="&#xb4;" horiz-adv-x="266" d="M0 1206l336 285h65l-344 -285h-57z" />
<glyph unicode="&#xb5;" horiz-adv-x="1214" d="M113 -414v1463h41v-660q0 -76 15 -135t57 -119.5t132.5 -93.5t225.5 -33q123 0 215 36t140 85t78 115.5t37 114t7 92.5v598h41v-1049h-41v236l-4 -5q-117 -264 -473 -264q-182 0 -288 57.5t-138 141.5v8h-4v-588h-41z" />
<glyph unicode="&#xb6;" horiz-adv-x="1228" d="M152 1061q0 195 116.5 298t323.5 103h407v-1736h-41v1695h-358v-1695h-41v938q-168 0 -287.5 117.5t-119.5 279.5zM193 1061q0 -145 108.5 -250.5t257.5 -105.5v716q-164 0 -265 -94t-101 -266z" />
<glyph unicode="&#xb7;" horiz-adv-x="344" d="M90 680q0 33 24.5 57.5t57.5 24.5t57.5 -24.5t24.5 -57.5t-24.5 -57.5t-57.5 -24.5t-57.5 24.5t-24.5 57.5z" />
<glyph unicode="&#xb8;" horiz-adv-x="569" d="M33 -346l16 39q98 -41 221 -41q172 0 172 110q0 86 -127 86q-98 0 -149 -28l-35 24l139 154h54l-115 -121l4 -4q66 16 102 16q76 0 122 -32.5t46 -92.5q0 -154 -213 -153q-128 0 -237 43z" />
<glyph unicode="&#xb9;" horiz-adv-x="794" d="M115 1264v28q188 43 291 162h40v-868h-28v839q-113 -118 -303 -161z" />
<glyph unicode="&#xba;" horiz-adv-x="815" d="M33 1138.5q0 149.5 102.5 245t272.5 95.5t272 -95.5t102 -245t-102 -244.5t-272 -95t-272.5 95t-102.5 244.5zM61 1139q0 -133 92.5 -222.5t254 -89.5t254 89.5t92.5 222.5t-92.5 222t-254 89t-254 -89t-92.5 -222z" />
<glyph unicode="&#xbb;" horiz-adv-x="796" d="M180 244v51l213 250l-213 250v51l242 -283v-37zM408 244v51l213 250l-213 250v51l241 -283v-37z" />
<glyph unicode="&#xbc;" horiz-adv-x="1990" d="M115 1264v28q188 43 291 162h40v-868h-28v839q-113 -118 -303 -161zM367 -49l979 1540h40l-978 -1540h-41zM1126 229v35l516 604h41v-610h193v-29h-193v-229h-28v229h-529zM1155 258h500v582z" />
<glyph unicode="&#xbd;" horiz-adv-x="1990" d="M115 1264v28q188 43 291 162h40v-868h-28v839q-113 -118 -303 -161zM367 -49l979 1540h40l-978 -1540h-41zM1178 0q2 96 54 152.5t189 132.5l252 135q63 35 105.5 93t42.5 124q0 227 -301 227q-295 0 -295 -278h-29q0 43 3 69.5t21.5 77.5t50.5 81t100.5 54.5t162.5 24.5 q92 0 158.5 -25.5t98.5 -66.5t45 -79t13 -75q0 -162 -196 -270l-244 -129q-102 -57 -147 -105.5t-56 -113.5h670v-29h-698z" />
<glyph unicode="&#xbe;" horiz-adv-x="1990" d="M115 852v27h28v-19q0 -270 336 -270q178 0 257 70.5t79 156.5q0 219 -315 219h-60v29h56q150 0 224.5 49t74.5 131q0 102 -78 153.5t-217 51.5q-170 0 -244 -64.5t-84 -201.5h-29q6 145 87 220t270 75q162 0 242.5 -61.5t80.5 -164.5q0 -78 -52 -134t-169 -66v-4 q242 -25 242 -234q0 -98 -85 -176t-282 -78q-180 0 -271 77t-91 214zM543 -49l979 1540h41l-979 -1540h-41zM1126 229v35l516 604h41v-610h193v-29h-193v-229h-28v229h-529zM1155 258h500v582z" />
<glyph unicode="&#xbf;" horiz-adv-x="1251" d="M125 -51q0 117 43 187.5t147 139.5l177 117q82 55 103 94t21 134v86h41v-58q0 -133 -24.5 -183t-138.5 -122l-144 -92q-109 -70 -146.5 -136.5t-37.5 -164.5q0 -324 469 -324q123 0 213 25.5t140 63.5t80 100.5t39 119t11 136.5h41q-2 -82 -10 -139.5t-40 -128 t-85 -113.5t-152.5 -74t-236.5 -31q-510 1 -510 363zM616 885v196h41v-196h-41z" />
<glyph unicode="&#xc0;" d="M-35 0l672 1462h53l672 -1462h-53l-219 483h-852l-220 -483h-53zM256 524h815l-407 897zM395 1853h66l336 -284h-58z" />
<glyph unicode="&#xc1;" d="M-35 0l672 1462h53l672 -1462h-53l-219 483h-852l-220 -483h-53zM256 524h815l-407 897zM530 1569l336 284h66l-344 -284h-58z" />
<glyph unicode="&#xc2;" d="M-35 0l672 1462h53l672 -1462h-53l-219 483h-852l-220 -483h-53zM256 524h815l-407 897zM293 1569l338 284h65l338 -284h-65l-305 256l-306 -256h-65z" />
<glyph unicode="&#xc3;" d="M-35 0l672 1462h53l672 -1462h-53l-219 483h-852l-220 -483h-53zM256 524h815l-407 897zM328 1638q27 166 184 166q43 0 88 -22l154 -80q45 -23 80 -23q43 0 77.5 30t46.5 95h41q-10 -80 -56 -123t-112 -43q-45 0 -92 25l-151 78q-43 23 -82 22q-47 0 -86 -30.5 t-51 -94.5h-41z" />
<glyph unicode="&#xc4;" d="M-35 0l672 1462h53l672 -1462h-53l-219 483h-852l-220 -483h-53zM256 524h815l-407 897zM432 1581v223h41v-223h-41zM854 1581v223h41v-223h-41z" />
<glyph unicode="&#xc5;" d="M-35 0l672 1462h53l672 -1462h-53l-219 483h-852l-220 -483h-53zM256 524h815l-407 897zM467 1722q0 82 57.5 139.5t139 57.5t139 -57.5t57.5 -139.5t-57.5 -139t-139 -57t-139 57t-57.5 139zM508 1722.5q0 -63.5 45 -109.5t110.5 -46t110.5 46t45 109.5t-45 109.5 t-110.5 46t-110.5 -46t-45 -109.5z" />
<glyph unicode="&#xc6;" horiz-adv-x="2123" d="M-51 0l958 1462h1200v-41h-1007v-639h928v-41h-928v-700h1007v-41h-1048v569h-686l-371 -569h-53zM399 610h660v811h-131z" />
<glyph unicode="&#xc7;" horiz-adv-x="1630" d="M57 731q0 352 216 558t542 206q270 0 455.5 -114.5t242.5 -344.5h-40q-45 184 -210 301t-448 117q-301 0 -509 -192.5t-208 -530.5t208 -530.5t509 -192.5q285 0 479.5 162t212.5 385h41q-31 -274 -241.5 -429t-481.5 -159l-86 -90l4 -4q66 16 103 16q76 0 122 -32.5 t46 -92.5q0 -154 -213 -153q-129 0 -238 43l17 39q98 -41 221 -41q172 0 172 110q0 86 -127 86q-98 0 -150 -28l-34 24l112 125q-309 12 -513 217t-204 545z" />
<glyph unicode="&#xc8;" horiz-adv-x="1290" d="M113 0v1462h1138v-41h-1097v-639h1050v-41h-1050v-700h1110v-41h-1151zM377 1853h65l336 -284h-57z" />
<glyph unicode="&#xc9;" horiz-adv-x="1290" d="M113 0v1462h1138v-41h-1097v-639h1050v-41h-1050v-700h1110v-41h-1151zM512 1569l336 284h65l-344 -284h-57z" />
<glyph unicode="&#xca;" horiz-adv-x="1290" d="M113 0v1462h1138v-41h-1097v-639h1050v-41h-1050v-700h1110v-41h-1151zM274 1569l338 284h66l338 -284h-66l-305 256l-305 -256h-66z" />
<glyph unicode="&#xcb;" horiz-adv-x="1290" d="M113 0v1462h1138v-41h-1097v-639h1050v-41h-1050v-700h1110v-41h-1151zM414 1581v223h41v-223h-41zM836 1581v223h41v-223h-41z" />
<glyph unicode="&#xcc;" horiz-adv-x="266" d="M-135 1853h65l336 -284h-57zM113 0v1462h41v-1462h-41z" />
<glyph unicode="&#xcd;" horiz-adv-x="266" d="M0 1569l336 284h65l-344 -284h-57zM113 0v1462h41v-1462h-41z" />
<glyph unicode="&#xce;" horiz-adv-x="266" d="M-238 1569l338 284h66l338 -284h-66l-305 256l-305 -256h-66zM113 0v1462h41v-1462h-41z" />
<glyph unicode="&#xcf;" horiz-adv-x="266" d="M-98 1581v223h41v-223h-41zM113 0v1462h41v-1462h-41zM324 1581v223h41v-223h-41z" />
<glyph unicode="&#xd0;" horiz-adv-x="1517" d="M-43 741v41h156v680h712q295 0 453 -197.5t158 -533.5t-158 -533.5t-453 -197.5h-712v741h-156zM154 41h671q152 0 265.5 57.5t178 156.5t95.5 218t31 258t-31 258t-95.5 218.5t-178 156.5t-265.5 57h-671v-639h677v-41h-677v-700z" />
<glyph unicode="&#xd1;" horiz-adv-x="1478" d="M113 0v1462h53l1155 -1409h4v1409h41v-1462h-53l-1155 1409h-4v-1409h-41zM403 1638q27 166 185 166q43 0 88 -22l153 -80q45 -23 80 -23q43 0 78 30t47 95h41q-10 -80 -56 -123t-112 -43q-45 0 -92 25l-151 78q-43 23 -82 22q-47 0 -86 -30.5t-52 -94.5h-41z" />
<glyph unicode="&#xd2;" horiz-adv-x="1630" d="M57 731q0 352 216 558t542 206t542 -206t216 -558t-216 -558t-542 -206t-542 206t-216 558zM98 731q0 -338 208 -530.5t509 -192.5t509 192.5t208 530.5t-208 530.5t-509 192.5t-509 -192.5t-208 -530.5zM547 1853h65l336 -284h-57z" />
<glyph unicode="&#xd3;" horiz-adv-x="1630" d="M57 731q0 352 216 558t542 206t542 -206t216 -558t-216 -558t-542 -206t-542 206t-216 558zM98 731q0 -338 208 -530.5t509 -192.5t509 192.5t208 530.5t-208 530.5t-509 192.5t-509 -192.5t-208 -530.5zM682 1569l336 284h65l-344 -284h-57z" />
<glyph unicode="&#xd4;" horiz-adv-x="1630" d="M57 731q0 352 216 558t542 206t542 -206t216 -558t-216 -558t-542 -206t-542 206t-216 558zM98 731q0 -338 208 -530.5t509 -192.5t509 192.5t208 530.5t-208 530.5t-509 192.5t-509 -192.5t-208 -530.5zM444 1569l338 284h66l338 -284h-66l-305 256l-305 -256h-66z" />
<glyph unicode="&#xd5;" horiz-adv-x="1630" d="M57 731q0 352 216 558t542 206t542 -206t216 -558t-216 -558t-542 -206t-542 206t-216 558zM98 731q0 -338 208 -530.5t509 -192.5t509 192.5t208 530.5t-208 530.5t-509 192.5t-509 -192.5t-208 -530.5zM479 1638q27 166 185 166q43 0 88 -22l153 -80q45 -23 80 -23 q43 0 78 30t47 95h41q-10 -80 -56 -123t-112 -43q-45 0 -92 25l-152 78q-43 23 -82 22q-47 0 -86 -30.5t-51 -94.5h-41z" />
<glyph unicode="&#xd6;" horiz-adv-x="1630" d="M57 731q0 352 216 558t542 206t542 -206t216 -558t-216 -558t-542 -206t-542 206t-216 558zM98 731q0 -338 208 -530.5t509 -192.5t509 192.5t208 530.5t-208 530.5t-509 192.5t-509 -192.5t-208 -530.5zM584 1581v223h41v-223h-41zM1006 1581v223h41v-223h-41z" />
<glyph unicode="&#xd7;" horiz-adv-x="1228" d="M162 94l426 424l-426 424l28 29l424 -426l424 426l29 -29l-426 -424l426 -424l-29 -28l-424 426l-424 -426z" />
<glyph unicode="&#xd8;" horiz-adv-x="1630" d="M57 731q0 352 216 558t542 206t533 -201l194 197l25 -25l-193 -196q199 -209 199 -539q0 -352 -216 -558t-542 -206q-324 0 -534 199l-193 -195l-25 25l193 197q-199 208 -199 538zM98 731q0 -315 189 -508l1034 1043q-205 188 -506 188t-509 -192.5t-208 -530.5z M313 199q197 -190 502 -191q301 0 509 192.5t208 530.5q0 313 -186 510z" />
<glyph unicode="&#xd9;" horiz-adv-x="1478" d="M102 535v927h41v-932q0 -522 596 -522t596 522v932h41v-927q0 -567 -637 -567t-637 567zM471 1853h66l335 -284h-57z" />
<glyph unicode="&#xda;" horiz-adv-x="1478" d="M102 535v927h41v-932q0 -522 596 -522t596 522v932h41v-927q0 -567 -637 -567t-637 567zM606 1569l336 284h66l-344 -284h-58z" />
<glyph unicode="&#xdb;" horiz-adv-x="1478" d="M102 535v927h41v-932q0 -522 596 -522t596 522v932h41v-927q0 -567 -637 -567t-637 567zM369 1569l338 284h65l338 -284h-66l-305 256l-305 -256h-65z" />
<glyph unicode="&#xdc;" horiz-adv-x="1478" d="M102 535v927h41v-932q0 -522 596 -522t596 522v932h41v-927q0 -567 -637 -567t-637 567zM508 1581v223h41v-223h-41zM930 1581v223h41v-223h-41z" />
<glyph unicode="&#xdd;" horiz-adv-x="1290" d="M-66 1462h60l651 -800l651 800h60l-690 -846v-616h-41v616zM512 1569l336 284h65l-344 -284h-57z" />
<glyph unicode="&#xde;" d="M113 0v1462h41v-291h741q406 0 405 -399q0 -170 -106.5 -283.5t-355.5 -113.5h-684v-375h-41zM154 416h694q203 0 307.5 93t104.5 263q0 358 -353 358h-753v-714z" />
<glyph unicode="&#xdf;" horiz-adv-x="1175" d="M113 0v1073q0 229 120.5 323.5t368.5 94.5q86 0 161 -15.5t144.5 -52.5t109.5 -108.5t40 -173.5q0 -162 -105.5 -238t-226.5 -80v-4q188 -2 300 -102.5t112 -298.5q0 -76 -23.5 -146.5t-74 -137t-145.5 -106.5t-222 -40q-106 0 -174 24v41q84 -25 174 -24q117 0 204 35.5 t132 95t66.5 124t21.5 134.5q0 381 -467 381h-99v41h43q225 0 334 79.5t109 223.5q0 160 -111.5 233.5t-302.5 73.5q-246 0 -347 -89t-101 -296v-1065h-41z" />
<glyph unicode="&#xe0;" horiz-adv-x="1155" d="M49 285q0 135 88 211.5t254 83.5l346 12q166 6 211 33.5t45 124.5v57q0 125 -107.5 179t-326.5 54q-223 0 -316 -69.5t-106 -239.5h-41q10 199 127 274.5t336 75.5q248 0 361.5 -66.5t113.5 -205.5v-680q0 -49 14.5 -68.5t55.5 -19.5q47 0 96 14v-41q-37 -14 -96 -14 q-111 0 -111 104v125h-4q-127 -262 -524 -262q-193 0 -304.5 82t-111.5 236zM90 283q0 -135 104.5 -205t272.5 -70q256 0 391 117t135 295v194h-4q-31 -53 -274 -63l-320 -12q-305 -12 -305 -256zM309 1491h66l336 -285h-58z" />
<glyph unicode="&#xe1;" horiz-adv-x="1155" d="M49 285q0 135 88 211.5t254 83.5l346 12q166 6 211 33.5t45 124.5v57q0 125 -107.5 179t-326.5 54q-223 0 -316 -69.5t-106 -239.5h-41q10 199 127 274.5t336 75.5q248 0 361.5 -66.5t113.5 -205.5v-680q0 -49 14.5 -68.5t55.5 -19.5q47 0 96 14v-41q-37 -14 -96 -14 q-111 0 -111 104v125h-4q-127 -262 -524 -262q-193 0 -304.5 82t-111.5 236zM90 283q0 -135 104.5 -205t272.5 -70q256 0 391 117t135 295v194h-4q-31 -53 -274 -63l-320 -12q-305 -12 -305 -256zM444 1206l336 285h66l-344 -285h-58z" />
<glyph unicode="&#xe2;" horiz-adv-x="1155" d="M49 285q0 135 88 211.5t254 83.5l346 12q166 6 211 33.5t45 124.5v57q0 125 -107.5 179t-326.5 54q-223 0 -316 -69.5t-106 -239.5h-41q10 199 127 274.5t336 75.5q248 0 361.5 -66.5t113.5 -205.5v-680q0 -49 14.5 -68.5t55.5 -19.5q47 0 96 14v-41q-37 -14 -96 -14 q-111 0 -111 104v125h-4q-127 -262 -524 -262q-193 0 -304.5 82t-111.5 236zM90 283q0 -135 104.5 -205t272.5 -70q256 0 391 117t135 295v194h-4q-31 -53 -274 -63l-320 -12q-305 -12 -305 -256zM207 1206l338 285h65l338 -285h-65l-305 256l-306 -256h-65z" />
<glyph unicode="&#xe3;" horiz-adv-x="1155" d="M49 285q0 135 88 211.5t254 83.5l346 12q166 6 211 33.5t45 124.5v57q0 125 -107.5 179t-326.5 54q-223 0 -316 -69.5t-106 -239.5h-41q10 199 127 274.5t336 75.5q248 0 361.5 -66.5t113.5 -205.5v-680q0 -49 14.5 -68.5t55.5 -19.5q47 0 96 14v-41q-37 -14 -96 -14 q-111 0 -111 104v125h-4q-127 -262 -524 -262q-193 0 -304.5 82t-111.5 236zM90 283q0 -135 104.5 -205t272.5 -70q256 0 391 117t135 295v194h-4q-31 -53 -274 -63l-320 -12q-305 -12 -305 -256zM242 1276q27 166 184 166q43 0 88 -23l154 -80q45 -23 80 -22 q43 0 77.5 29.5t46.5 95.5h41q-10 -80 -56 -123t-112 -43q-45 0 -92 24l-151 78q-43 23 -82 23q-47 0 -86 -31t-51 -94h-41z" />
<glyph unicode="&#xe4;" horiz-adv-x="1155" d="M49 285q0 135 88 211.5t254 83.5l346 12q166 6 211 33.5t45 124.5v57q0 125 -107.5 179t-326.5 54q-223 0 -316 -69.5t-106 -239.5h-41q10 199 127 274.5t336 75.5q248 0 361.5 -66.5t113.5 -205.5v-680q0 -49 14.5 -68.5t55.5 -19.5q47 0 96 14v-41q-37 -14 -96 -14 q-111 0 -111 104v125h-4q-127 -262 -524 -262q-193 0 -304.5 82t-111.5 236zM90 283q0 -135 104.5 -205t272.5 -70q256 0 391 117t135 295v194h-4q-31 -53 -274 -63l-320 -12q-305 -12 -305 -256zM346 1219v223h41v-223h-41zM768 1219v223h41v-223h-41z" />
<glyph unicode="&#xe5;" horiz-adv-x="1155" d="M49 285q0 135 88 211.5t254 83.5l346 12q166 6 211 33.5t45 124.5v57q0 125 -107.5 179t-326.5 54q-223 0 -316 -69.5t-106 -239.5h-41q10 199 127 274.5t336 75.5q248 0 361.5 -66.5t113.5 -205.5v-680q0 -49 14.5 -68.5t55.5 -19.5q47 0 96 14v-41q-37 -14 -96 -14 q-111 0 -111 104v125h-4q-127 -262 -524 -262q-193 0 -304.5 82t-111.5 236zM90 283q0 -135 104.5 -205t272.5 -70q256 0 391 117t135 295v194h-4q-31 -53 -274 -63l-320 -12q-305 -12 -305 -256zM381 1370q0 82 57.5 139.5t139 57.5t139 -57.5t57.5 -139.5t-57.5 -139 t-139 -57t-139 57t-57.5 139zM422 1370.5q0 -63.5 45 -110t110.5 -46.5t110.5 46.5t45 110t-45 109.5t-110.5 46t-110.5 -46t-45 -109.5z" />
<glyph unicode="&#xe6;" horiz-adv-x="2158" d="M49 283q0 285 354 297l334 12q166 6 211 33.5t45 124.5v57q0 125 -107.5 179t-326.5 54q-223 0 -316 -69.5t-106 -239.5h-41q10 199 127 274.5t336 75.5q248 0 361.5 -66.5t113.5 -205.5v-59h4q57 154 196.5 242.5t336.5 88.5q238 0 398.5 -150.5t160.5 -406.5h-1096 q0 -229 139.5 -372.5t397.5 -143.5q403 0 502 357h41q-14 -66 -45 -126.5t-89.5 -126t-164 -105.5t-244.5 -40q-403 0 -547 342q-37 -117 -124 -195.5t-196.5 -112.5t-238.5 -34q-193 0 -304.5 81t-111.5 235zM90 279q0 -133 104.5 -202t272.5 -69q256 0 391 117t135 295 v194h-4q-16 -29 -80.5 -42t-220.5 -21l-272 -12q-184 -8 -257 -75.5t-69 -184.5zM1034 565h1055q-12 199 -150.5 337t-367.5 138q-242 0 -382.5 -135t-154.5 -340z" />
<glyph unicode="&#xe7;" d="M98 524q0 244 158 400.5t420 156.5q229 0 371.5 -95t173.5 -265h-41q-74 319 -504 319q-254 0 -395.5 -148.5t-141.5 -367.5t141.5 -367.5t395.5 -148.5q203 0 335 89t177 259h41q-45 -182 -183.5 -285.5t-369.5 -103.5h-2l-86 -90l4 -4q66 16 102 16q76 0 122 -32.5 t46 -92.5q0 -154 -213 -153q-129 0 -237 43l16 39q98 -41 221 -41q172 0 172 110q0 86 -127 86q-98 0 -149 -28l-35 24l115 127q-242 14 -384.5 169t-142.5 384z" />
<glyph unicode="&#xe8;" horiz-adv-x="1214" d="M49 524.5q0 243.5 158 400t420 156.5q238 0 398.5 -150.5t160.5 -406.5h-1096q0 -219 141.5 -367.5t395.5 -148.5q403 0 501 357h41q-14 -66 -44.5 -126.5t-89 -126t-164 -105.5t-244.5 -40q-262 0 -420 157t-158 400.5zM90 565h1055q-12 199 -150.5 337t-367.5 138 q-242 0 -382.5 -135t-154.5 -340zM340 1491h66l335 -285h-57z" />
<glyph unicode="&#xe9;" horiz-adv-x="1214" d="M49 524.5q0 243.5 158 400t420 156.5q238 0 398.5 -150.5t160.5 -406.5h-1096q0 -219 141.5 -367.5t395.5 -148.5q403 0 501 357h41q-14 -66 -44.5 -126.5t-89 -126t-164 -105.5t-244.5 -40q-262 0 -420 157t-158 400.5zM90 565h1055q-12 199 -150.5 337t-367.5 138 q-242 0 -382.5 -135t-154.5 -340zM475 1206l336 285h66l-345 -285h-57z" />
<glyph unicode="&#xea;" horiz-adv-x="1214" d="M49 524.5q0 243.5 158 400t420 156.5q238 0 398.5 -150.5t160.5 -406.5h-1096q0 -219 141.5 -367.5t395.5 -148.5q403 0 501 357h41q-14 -66 -44.5 -126.5t-89 -126t-164 -105.5t-244.5 -40q-262 0 -420 157t-158 400.5zM90 565h1055q-12 199 -150.5 337t-367.5 138 q-242 0 -382.5 -135t-154.5 -340zM238 1206l337 285h66l338 -285h-66l-305 256l-305 -256h-65z" />
<glyph unicode="&#xeb;" horiz-adv-x="1214" d="M49 524.5q0 243.5 158 400t420 156.5q238 0 398.5 -150.5t160.5 -406.5h-1096q0 -219 141.5 -367.5t395.5 -148.5q403 0 501 357h41q-14 -66 -44.5 -126.5t-89 -126t-164 -105.5t-244.5 -40q-262 0 -420 157t-158 400.5zM90 565h1055q-12 199 -150.5 337t-367.5 138 q-242 0 -382.5 -135t-154.5 -340zM377 1219v223h41v-223h-41zM799 1219v223h41v-223h-41z" />
<glyph unicode="&#xec;" horiz-adv-x="266" d="M-135 1491h65l336 -285h-57zM113 0v1049h41v-1049h-41z" />
<glyph unicode="&#xed;" horiz-adv-x="266" d="M0 1206l336 285h65l-344 -285h-57zM113 0v1049h41v-1049h-41z" />
<glyph unicode="&#xee;" horiz-adv-x="266" d="M-238 1206l338 285h66l338 -285h-66l-305 256l-305 -256h-66zM113 0v1049h41v-1049h-41z" />
<glyph unicode="&#xef;" horiz-adv-x="266" d="M-98 1219v223h41v-223h-41zM113 0v1049h41v-1049h-41zM324 1219v223h41v-223h-41z" />
<glyph unicode="&#xf0;" horiz-adv-x="1253" d="M49 524.5q0 243.5 158 400t420 156.5q377 0 512 -303l4 4q-86 403 -434 588l-244 -129l-31 31l230 123q-135 68 -312 100l33 41q176 -39 328 -113l237 123l33 -30l-227 -121q449 -256 448 -850q0 -264 -155.5 -421t-421.5 -157q-262 0 -420 157t-158 400.5zM90 524 q0 -219 141.5 -367.5t395.5 -148.5t395 148.5t141 367.5t-141 367.5t-395 148.5t-395.5 -148.5t-141.5 -367.5z" />
<glyph unicode="&#xf1;" horiz-adv-x="1214" d="M113 0v1049h41v-236h4q119 268 473 268q143 0 241.5 -35.5t145.5 -101t65.5 -133.5t18.5 -152v-659h-41v659q0 76 -15.5 135.5t-57.5 120t-132 93t-225 32.5q-125 0 -217 -34.5t-140.5 -84t-77 -117t-35.5 -116.5t-7 -100v-588h-41zM272 1276q27 166 185 166q43 0 88 -23 l153 -80q45 -23 80 -22q43 0 78 29.5t47 95.5h41q-10 -80 -56 -123t-112 -43q-45 0 -92 24l-152 78q-43 23 -81 23q-47 0 -86 -31t-52 -94h-41z" />
<glyph unicode="&#xf2;" horiz-adv-x="1253" d="M49 524.5q0 243.5 158 400t420 156.5t419.5 -156.5t157.5 -400t-157.5 -400.5t-419.5 -157t-420 157t-158 400.5zM90 524q0 -219 141.5 -367.5t395.5 -148.5t395 148.5t141 367.5t-141 367.5t-395 148.5t-395.5 -148.5t-141.5 -367.5zM358 1491h66l336 -285h-58z" />
<glyph unicode="&#xf3;" horiz-adv-x="1253" d="M49 524.5q0 243.5 158 400t420 156.5t419.5 -156.5t157.5 -400t-157.5 -400.5t-419.5 -157t-420 157t-158 400.5zM90 524q0 -219 141.5 -367.5t395.5 -148.5t395 148.5t141 367.5t-141 367.5t-395 148.5t-395.5 -148.5t-141.5 -367.5zM494 1206l335 285h66l-344 -285h-57 z" />
<glyph unicode="&#xf4;" horiz-adv-x="1253" d="M49 524.5q0 243.5 158 400t420 156.5t419.5 -156.5t157.5 -400t-157.5 -400.5t-419.5 -157t-420 157t-158 400.5zM90 524q0 -219 141.5 -367.5t395.5 -148.5t395 148.5t141 367.5t-141 367.5t-395 148.5t-395.5 -148.5t-141.5 -367.5zM256 1206l338 285h65l338 -285h-65 l-305 256l-305 -256h-66z" />
<glyph unicode="&#xf5;" horiz-adv-x="1253" d="M49 524.5q0 243.5 158 400t420 156.5t419.5 -156.5t157.5 -400t-157.5 -400.5t-419.5 -157t-420 157t-158 400.5zM90 524q0 -219 141.5 -367.5t395.5 -148.5t395 148.5t141 367.5t-141 367.5t-395 148.5t-395.5 -148.5t-141.5 -367.5zM291 1276q27 166 184 166 q43 0 88 -23l154 -80q45 -23 80 -22q43 0 77.5 29.5t47.5 95.5h41q-10 -80 -56.5 -123t-111.5 -43q-45 0 -93 24l-151 78q-43 23 -82 23q-47 0 -86 -31t-51 -94h-41z" />
<glyph unicode="&#xf6;" horiz-adv-x="1253" d="M49 524.5q0 243.5 158 400t420 156.5t419.5 -156.5t157.5 -400t-157.5 -400.5t-419.5 -157t-420 157t-158 400.5zM90 524q0 -219 141.5 -367.5t395.5 -148.5t395 148.5t141 367.5t-141 367.5t-395 148.5t-395.5 -148.5t-141.5 -367.5zM395 1219v223h41v-223h-41z M817 1219v223h41v-223h-41z" />
<glyph unicode="&#xf7;" horiz-adv-x="1228" d="M96 498v41h1037v-41h-1037zM535 82q0 33 23.5 57.5t58 24.5t58 -24.5t23.5 -57.5t-23.5 -57.5t-58 -24.5t-58 24.5t-23.5 57.5zM535 954.5q0 32.5 23.5 57t58 24.5t58 -24.5t23.5 -57t-23.5 -57.5t-58 -25t-58 25t-23.5 57.5z" />
<glyph unicode="&#xf8;" horiz-adv-x="1253" d="M49 524q0 244 158 400.5t420 156.5q242 0 403 -141l146 139l24 -24l-145 -140q150 -156 149 -391q0 -244 -157.5 -400.5t-419.5 -156.5q-250 0 -404 142l-145 -140l-25 25l146 141q-150 153 -150 389zM90 524q0 -219 137 -362l774 749q-145 129 -374 129 q-254 0 -395.5 -148.5t-141.5 -367.5zM252 137q145 -129 375 -129q254 0 395 148.5t141 367.5q0 221 -137 363z" />
<glyph unicode="&#xf9;" horiz-adv-x="1214" d="M113 389v660h41v-660q0 -76 15 -135t57 -119.5t132.5 -93.5t225.5 -33q123 0 215 36t140 85t78 115.5t37 114t7 92.5v598h41v-1049h-41v236l-4 -5q-117 -264 -473 -264q-143 0 -241.5 36t-145.5 101.5t-65.5 133t-18.5 151.5zM340 1491h66l335 -285h-57z" />
<glyph unicode="&#xfa;" horiz-adv-x="1214" d="M113 389v660h41v-660q0 -76 15 -135t57 -119.5t132.5 -93.5t225.5 -33q123 0 215 36t140 85t78 115.5t37 114t7 92.5v598h41v-1049h-41v236l-4 -5q-117 -264 -473 -264q-143 0 -241.5 36t-145.5 101.5t-65.5 133t-18.5 151.5zM475 1206l336 285h66l-345 -285h-57z" />
<glyph unicode="&#xfb;" horiz-adv-x="1214" d="M113 389v660h41v-660q0 -76 15 -135t57 -119.5t132.5 -93.5t225.5 -33q123 0 215 36t140 85t78 115.5t37 114t7 92.5v598h41v-1049h-41v236l-4 -5q-117 -264 -473 -264q-143 0 -241.5 36t-145.5 101.5t-65.5 133t-18.5 151.5zM238 1206l337 285h66l338 -285h-66l-305 256 l-305 -256h-65z" />
<glyph unicode="&#xfc;" horiz-adv-x="1214" d="M113 389v660h41v-660q0 -76 15 -135t57 -119.5t132.5 -93.5t225.5 -33q123 0 215 36t140 85t78 115.5t37 114t7 92.5v598h41v-1049h-41v236l-4 -5q-117 -264 -473 -264q-143 0 -241.5 36t-145.5 101.5t-65.5 133t-18.5 151.5zM377 1219v223h41v-223h-41zM799 1219v223h41 v-223h-41z" />
<glyph unicode="&#xfd;" horiz-adv-x="1024" d="M-27 1049h54l510 -998l460 998h54l-557 -1188q-63 -133 -121 -174t-174 -41h-82v41h94q88 0 137 32.5t94 130.5l70 152zM379 1206l336 285h65l-344 -285h-57z" />
<glyph unicode="&#xfe;" horiz-adv-x="1253" d="M113 -414v1876h41v-696h4q57 154 187 234.5t312 80.5q268 0 407.5 -158.5t139.5 -398t-139 -398.5t-408 -159q-172 0 -305 76t-194 242h-4v-699h-41zM154 524q0 -219 126 -367.5t377.5 -148.5t378.5 148.5t127 367.5t-127 367.5t-378.5 148.5t-377.5 -148.5t-126 -367.5z " />
<glyph unicode="&#xff;" horiz-adv-x="1024" d="M-27 1049h54l510 -998l460 998h54l-557 -1188q-63 -133 -121 -174t-174 -41h-82v41h94q88 0 137 32.5t94 130.5l70 152zM281 1219v223h41v-223h-41zM702 1219v223h41v-223h-41z" />
<glyph unicode="&#x152;" horiz-adv-x="2390" d="M57 731q0 352 216 558t542 206q301 0 510 -178v145h1049v-41h-1008v-639h928v-41h-928v-700h1008v-41h-1049v145q-207 -178 -510 -178q-326 0 -542 206t-216 558zM98 731q0 -338 208 -530.5t509 -192.5q272 0 485 168q25 18 25 47v1016q0 25 -33 51q-195 164 -477 164 q-301 0 -509 -192.5t-208 -530.5z" />
<glyph unicode="&#x153;" horiz-adv-x="2158" d="M49 524q0 254 151.5 405.5t379.5 151.5q188 0 327.5 -106.5t179.5 -288.5h5q39 180 168 287.5t342 107.5q150 0 258 -49t164.5 -133t81 -176t24.5 -199h-1020q2 -270 143.5 -393t345.5 -123q217 0 333 99.5t147 244.5h41q-35 -190 -177.5 -287.5t-336.5 -97.5 q-193 0 -332 94.5t-182 284.5h-5q-55 -193 -197 -286t-310 -93q-227 0 -379 151.5t-152 405.5zM90 524.5q0 -237.5 141.5 -377t348 -139.5t348 139.5t141.5 376.5q-2 240 -142.5 378t-347 138t-348 -139t-141.5 -376.5zM1110 565h979q-2 82 -25.5 157t-75 150.5 t-151.5 121.5t-240 46q-199 0 -331.5 -115.5t-155.5 -359.5z" />
<glyph unicode="&#x178;" horiz-adv-x="1290" d="M-66 1462h60l651 -800l651 800h60l-690 -846v-616h-41v616zM414 1581v223h41v-223h-41zM836 1581v223h41v-223h-41z" />
<glyph unicode="&#x2c6;" horiz-adv-x="266" d="M-238 1206l338 285h66l338 -285h-66l-305 256l-305 -256h-66z" />
<glyph unicode="&#x2dc;" horiz-adv-x="266" d="M-203 1276q27 166 185 166q43 0 88 -23l153 -80q45 -23 80 -22q43 0 78 29.5t47 95.5h41q-10 -80 -56 -123t-112 -43q-45 0 -92 24l-152 78q-43 23 -82 23q-47 0 -86 -31t-51 -94h-41z" />
<glyph unicode="&#x2000;" horiz-adv-x="958" />
<glyph unicode="&#x2001;" horiz-adv-x="1918" />
<glyph unicode="&#x2002;" horiz-adv-x="958" />
<glyph unicode="&#x2003;" horiz-adv-x="1918" />
<glyph unicode="&#x2004;" horiz-adv-x="638" />
<glyph unicode="&#x2005;" horiz-adv-x="479" />
<glyph unicode="&#x2006;" horiz-adv-x="319" />
<glyph unicode="&#x2007;" horiz-adv-x="319" />
<glyph unicode="&#x2008;" horiz-adv-x="239" />
<glyph unicode="&#x2009;" horiz-adv-x="382" />
<glyph unicode="&#x200a;" horiz-adv-x="106" />
<glyph unicode="&#x2010;" horiz-adv-x="757" d="M160 524v41h438v-41h-438z" />
<glyph unicode="&#x2011;" horiz-adv-x="757" d="M160 524v41h438v-41h-438z" />
<glyph unicode="&#x2012;" horiz-adv-x="757" d="M160 524v41h438v-41h-438z" />
<glyph unicode="&#x2013;" horiz-adv-x="1024" d="M0 524v41h1024v-41h-1024z" />
<glyph unicode="&#x2014;" horiz-adv-x="2048" d="M0 524v41h2048v-41h-2048z" />
<glyph unicode="&#x2018;" horiz-adv-x="344" d="M152 1020v194q0 94 19 153.5t79 94.5v-53q-57 -37 -57 -180v-209h-41z" />
<glyph unicode="&#x2019;" horiz-adv-x="344" d="M94 1020v53q57 37 58 180v209h41v-194q0 -94 -20 -153.5t-79 -94.5z" />
<glyph unicode="&#x201a;" horiz-adv-x="344" d="M94 -193q57 37 58 181v209h41v-195q0 -94 -19.5 -153.5t-79.5 -94.5v53z" />
<glyph unicode="&#x201c;" horiz-adv-x="606" d="M152 1020v194q0 94 19 153.5t79 94.5v-53q-57 -37 -57 -180v-209h-41zM414 1020v194q0 94 19.5 153.5t78.5 94.5v-53q-57 -37 -57 -180v-209h-41z" />
<glyph unicode="&#x201d;" horiz-adv-x="606" d="M94 1020v53q57 37 58 180v209h41v-194q0 -94 -20 -153.5t-79 -94.5zM356 1020v53q57 37 58 180v209h41v-194q0 -94 -20 -153.5t-79 -94.5z" />
<glyph unicode="&#x201e;" horiz-adv-x="606" d="M94 -193q57 37 58 181v209h41v-195q0 -94 -19.5 -153.5t-79.5 -94.5v53zM356 -193q57 37 58 181v209h41v-195q0 -94 -19.5 -153.5t-79.5 -94.5v53z" />
<glyph unicode="&#x2022;" horiz-adv-x="1024" d="M147 729.5q0 151.5 106.5 258t258.5 106.5t258.5 -106.5t106.5 -258t-106.5 -258t-258.5 -106.5t-258.5 106.5t-106.5 258z" />
<glyph unicode="&#x2026;" horiz-adv-x="2048" d="M322 0v197h40v-197h-40zM1004 0v197h40v-197h-40zM1686 0v197h40v-197h-40z" />
<glyph unicode="&#x202f;" horiz-adv-x="382" />
<glyph unicode="&#x2039;" horiz-adv-x="569" d="M147 526v37l242 283v-51l-213 -250l213 -250v-51z" />
<glyph unicode="&#x203a;" horiz-adv-x="569" d="M180 244v51l213 250l-213 250v51l242 -283v-37z" />
<glyph unicode="&#x205f;" horiz-adv-x="479" />
<glyph unicode="&#x20ac;" d="M33 610l22 41h152q-2 10 -2 31v33q0 74 8 131h-180l22 41h164q49 270 229.5 426.5t452.5 156.5q209 0 387 -110l-20 -33q-168 102 -371 103q-250 0 -420 -147.5t-211 -395.5h846l-25 -41h-827q-8 -57 -8 -129v-33q0 -23 2 -33h774l-22 -41h-748q25 -268 199 -435 t440 -167q123 0 211 35t201 117v-51q-182 -139 -414 -140q-285 0 -473.5 177.5t-212.5 463.5h-176z" />
<glyph unicode="&#x2122;" horiz-adv-x="2027" d="M86 1421v41h651v-41h-305v-803h-41v803h-305zM926 618v844h67l338 -790l338 790h68v-844h-41v803h-4l-340 -803h-41l-340 803h-4v-803h-41z" />
<glyph unicode="&#xe000;" horiz-adv-x="1050" d="M0 1050h1050v-1050h-1050v1050z" />
<glyph unicode="&#xfb01;" horiz-adv-x="872" d="M2 1008v41h250v206q0 127 70.5 173.5t201.5 46.5q29 0 123 -5v-40q-39 4 -117 4q-139 0 -188 -45.5t-49 -155.5v-184h305v-41h-305v-1008h-41v1008h-250zM719 0v1049h41v-1049h-41zM719 1239v223h41v-223h-41z" />
<glyph unicode="&#xfb02;" horiz-adv-x="872" d="M2 1008v41h250v206q0 127 70.5 173.5t201.5 46.5q29 0 123 -5v-40q-39 4 -117 4q-139 0 -188 -45.5t-49 -155.5v-184h305v-41h-305v-1008h-41v1008h-250zM719 0v1462h41v-1462h-41z" />
<glyph unicode="&#xfb03;" horiz-adv-x="1404" d="M1252 0v1049h41v-1049h-41zM1252 1239v223h41v-223h-41zM571 1008v41h250v206q0 127 70.5 173.5t201.5 46.5q29 0 123 -5v-40q-39 4 -117 4q-139 0 -188 -45.5t-49 -155.5v-184h305v-41h-305v-1008h-41v1008h-250zM2 1008v41h250v206q0 127 70.5 173.5t201.5 46.5 q29 0 123 -5v-40q-39 4 -117 4q-139 0 -188 -45.5t-49 -155.5v-184h305v-41h-305v-1008h-41v1008h-250z" />
<glyph unicode="&#xfb04;" horiz-adv-x="1404" d="M1252 0v1462h41v-1462h-41zM571 1008v41h250v206q0 127 70.5 173.5t201.5 46.5q29 0 123 -5v-40q-39 4 -117 4q-139 0 -188 -45.5t-49 -155.5v-184h305v-41h-305v-1008h-41v1008h-250zM2 1008v41h250v206q0 127 70.5 173.5t201.5 46.5q29 0 123 -5v-40q-39 4 -117 4 q-139 0 -188 -45.5t-49 -155.5v-184h305v-41h-305v-1008h-41v1008h-250z" />
</font>
</defs>
</svg>
